<svg width="254" height="125" viewBox="0 0 254 125" fill="none" xmlns="http://www.w3.org/2000/svg">
<path d="M81.4779 52.7135C81.5004 52.6401 81.5218 52.5667 81.5443 52.4933C81.6872 51.9146 81.9485 51.2501 82.2435 50.6011C82.6325 49.6969 83.0888 48.8246 83.6145 47.9938C85.5041 45.0113 88.0939 42.7119 90.5991 40.4879L90.841 40.274C92.8041 38.5306 94.5783 36.8936 95.9584 35.0768V35.05C96.2555 34.6604 96.6567 34.1023 97.0456 33.4626C97.0742 33.414 97.1028 33.3665 97.1303 33.3179C97.6448 32.4157 98.0256 31.4877 98.2716 30.568C98.1634 30.7912 97.2447 32.6607 95.9584 34.1891V26.7556H88.3859C86.6219 26.7556 85.1917 28.2035 85.1917 29.9892V37.7741H74.3086V45.4412C74.3086 47.227 75.7378 48.6738 77.5018 48.6738H82.2007C81.7627 50.1691 81.5422 52.081 81.4779 52.7135Z" fill="url(#paint0_linear_347_7)"/>
<path d="M85.1916 53.902V53.9423C85.1181 54.1841 85.0303 54.4931 84.9425 54.8486C84.7302 55.7642 84.5985 56.6995 84.5505 57.6389C84.6046 57.4198 84.8394 56.4959 85.1916 55.5421V59.6923H86.1992C86.6626 58.4398 87.3252 57.2989 88.6277 56.4008C91.0328 54.7432 92.7621 52.8479 92.9316 51.6832L93.1174 50.409L93.9994 51.337C94.0688 51.4104 94.6833 52.0893 94.813 53.3016C94.9763 54.828 94.3179 56.4484 92.855 58.1163C92.7825 58.3664 92.6202 59.0165 92.6723 59.6923H92.7652C94.5292 59.6923 95.9583 58.2445 95.9583 56.4597V48.6738H106.842V41.0078C106.842 39.222 105.413 37.7742 103.649 37.7742H99.5803C100.322 36.193 101.096 34.1716 101.096 34.1716C100.73 35.0769 100.081 36.0763 99.4853 36.8947C97.8357 39.2293 95.7409 41.1742 93.4134 43.2421L93.1705 43.4571C90.7633 45.5942 88.4899 47.6125 86.8974 50.1258C86.1573 51.2946 85.5877 52.5709 85.1916 53.902Z" fill="url(#paint1_linear_347_7)"/>
<mask id="mask0_347_7" style="mask-type:luminance" maskUnits="userSpaceOnUse" x="62" y="16" width="52" height="53">
<path d="M62.7231 16.3003H113.279V68.4113H62.7231V16.3003Z" fill="white"/>
</mask>
<g mask="url(#mask0_347_7)">
<path d="M113.26 52.8467C113.124 52.177 112.221 52.236 111.732 52.4643C111.181 52.7217 110.87 53.2901 110.498 53.7355C110.111 54.1995 109.713 54.6532 109.3 55.0944C106.293 58.3043 102.479 61.1152 98.0734 62.0815C90.1681 63.8166 92.3006 57.7958 92.3006 57.7958C95.6816 54.0197 93.5491 51.775 93.5491 51.775C93.3408 53.2022 91.4206 55.2402 88.9798 56.9236C87.2189 58.1369 86.7381 59.8896 86.2032 61.7963C86.244 61.6516 81.2501 60.7442 80.8285 60.6378C79.09 60.1955 77.4097 59.533 75.855 58.6495C73.7123 57.431 71.7369 55.7 70.223 53.7913C70.1434 53.69 70.0638 53.5867 69.9831 53.4843C69.9086 53.3789 69.8331 53.2725 69.7575 53.165C68.5346 51.4702 67.5168 49.5356 66.7879 47.4511C66.7012 47.1897 66.6144 46.9262 66.5266 46.6637C66.5041 46.5975 66.4848 46.5314 66.4674 46.4642L66.4123 46.2637L66.301 45.8617C66.2653 45.7263 66.2265 45.593 66.1908 45.4576L66.1009 45.0484L66.0101 44.6392C65.9805 44.5017 65.9447 44.3653 65.9253 44.2268C65.8794 43.9499 65.8324 43.6729 65.7855 43.3959C65.7743 43.3257 65.76 43.2564 65.7518 43.1872L65.7273 42.9774L65.6793 42.5568L65.6293 42.1362C65.6119 41.9956 65.6089 41.8541 65.5976 41.7135L65.5711 41.2898L65.5568 41.0779L65.5497 40.9715L65.5466 40.9188L65.5446 40.8919C65.5446 40.8992 65.5446 40.8403 65.5425 40.9002L65.5333 40.0011L65.5303 39.7758C65.5293 39.7004 65.5282 39.6249 65.5323 39.5588L65.5486 39.1465L65.564 38.7331L65.5711 38.5254C65.5752 38.4561 65.5834 38.3848 65.5895 38.3145C65.615 38.0314 65.6405 37.7492 65.665 37.4671C65.6742 37.3255 65.6997 37.186 65.7181 37.0455L65.7783 36.6249L65.8365 36.2032C65.862 36.0637 65.8906 35.9252 65.9172 35.7868L65.9978 35.3703L66.0376 35.1615C66.0509 35.0923 66.0642 35.023 66.0825 34.9548C66.1509 34.6799 66.2183 34.4061 66.2857 34.1322C66.8645 31.9527 67.7557 29.8765 68.8919 28.0163C68.9623 27.8996 69.0317 27.7828 69.1011 27.666C69.1767 27.5523 69.2522 27.4397 69.3267 27.327C69.4778 27.1028 69.6228 26.8744 69.778 26.6553C70.0985 26.2244 70.4037 25.7862 70.7467 25.3832C70.8294 25.2808 70.9131 25.1785 70.9958 25.0762L71.1204 24.9233L71.251 24.7755C71.4256 24.5802 71.5991 24.3869 71.7716 24.1937L71.9023 24.049L72.0381 23.9115C72.1279 23.8196 72.2188 23.7276 72.3086 23.6366C72.3984 23.5447 72.4883 23.4537 72.5771 23.3628L72.7118 23.2264L72.8517 23.0972C73.0385 22.9256 73.2233 22.7541 73.407 22.5846L73.5448 22.4575L73.6878 22.3366C73.7837 22.257 73.8786 22.1774 73.9726 22.0979C74.0675 22.0183 74.1624 21.9387 74.2564 21.8602C74.3503 21.7816 74.4421 21.701 74.5412 21.6287C74.7351 21.4809 74.927 21.3342 75.1179 21.1895C75.2149 21.1171 75.3078 21.0417 75.4048 20.9735C75.5038 20.9063 75.6008 20.8391 75.6988 20.7709C75.8927 20.6376 76.0867 20.5043 76.2776 20.372C76.4726 20.2449 76.6706 20.1271 76.8636 20.0052C76.9605 19.9452 77.0565 19.8853 77.1535 19.8253C77.2494 19.7654 77.3444 19.7055 77.4434 19.6528C78.9961 18.7547 80.5222 18.0964 81.9136 17.622C82.0892 17.5652 82.2617 17.5094 82.4302 17.4546C82.5149 17.4267 82.5996 17.3999 82.6833 17.372C82.7252 17.3596 82.766 17.3451 82.8069 17.3327C82.8497 17.3213 82.8916 17.31 82.9324 17.2986C83.2652 17.2076 83.5857 17.1198 83.894 17.0361C84.2044 16.9596 84.5055 16.8997 84.7914 16.8346C84.9353 16.8036 85.0741 16.7705 85.2119 16.7436C85.3497 16.7199 85.4845 16.6971 85.6152 16.6744C85.8775 16.6299 86.1266 16.5886 86.3604 16.5493C86.5952 16.5152 86.8157 16.4935 87.0219 16.4677C87.2271 16.4429 87.418 16.4202 87.5925 16.3995C87.7671 16.3799 87.9274 16.3747 88.0692 16.3623C88.6409 16.323 88.9461 16.3024 88.9461 16.3024C88.9461 16.3024 88.6399 16.3024 88.0672 16.3013C87.9233 16.3024 87.763 16.2962 87.5864 16.3044C87.4098 16.3127 87.2179 16.322 87.0096 16.3313C86.8014 16.3427 86.5778 16.3499 86.3389 16.3664C86.1011 16.3902 85.8479 16.414 85.5815 16.4408C85.4477 16.4532 85.3099 16.4667 85.1691 16.4811C85.0292 16.4987 84.8853 16.5214 84.7383 16.5431C84.4453 16.5876 84.136 16.6268 83.8165 16.6827C83.498 16.7457 83.1662 16.8118 82.8222 16.88C82.7793 16.8883 82.7354 16.8966 82.6925 16.9048C82.6496 16.9162 82.6057 16.9265 82.5629 16.9369C82.4761 16.9586 82.3893 16.9803 82.3005 17.002C82.1239 17.0464 81.9453 17.0909 81.7625 17.1363C80.3089 17.5187 78.696 18.0819 77.0238 18.8963C76.9177 18.9438 76.8146 18.9986 76.7115 19.0534C76.6073 19.1081 76.5032 19.1629 76.3981 19.2187C76.1888 19.3303 75.9744 19.4378 75.7631 19.5566C75.5538 19.6786 75.3435 19.8026 75.1312 19.9276C75.025 19.9907 74.9179 20.0537 74.8107 20.1168C74.7035 20.1808 74.6014 20.2521 74.4963 20.3193C74.286 20.4578 74.0736 20.5963 73.8603 20.7358C73.7521 20.804 73.65 20.8805 73.5448 20.9559C73.4407 21.0314 73.3366 21.1078 73.2314 21.1833C73.1263 21.2597 73.0201 21.3362 72.915 21.4127L72.7557 21.5284L72.6016 21.6514C72.3954 21.8157 72.1881 21.9821 71.9789 22.1485L71.8227 22.2746L71.6706 22.4069C71.5695 22.4957 71.4685 22.5846 71.3664 22.6745C71.2643 22.7634 71.1622 22.8533 71.0601 22.9442L70.906 23.0796L70.758 23.2222C70.5609 23.4124 70.3619 23.6046 70.1618 23.7989L70.0128 23.9446L69.8688 24.0965C69.7739 24.1988 69.6779 24.3011 69.5809 24.4035C69.1869 24.8065 68.8276 25.2467 68.4529 25.6829C68.2702 25.905 68.0977 26.1365 67.919 26.3649C67.8302 26.4796 67.7414 26.5954 67.6516 26.7111C67.5679 26.83 67.4841 26.9488 67.4004 27.0687C66.0376 28.9754 64.9045 31.1497 64.097 33.4894C64.0011 33.784 63.9051 34.0785 63.8091 34.374C63.7836 34.4474 63.7622 34.5229 63.7428 34.5983L63.6815 34.8226L63.559 35.2742C63.5192 35.4251 63.4764 35.5759 63.4386 35.7268L63.3385 36.1846L63.2385 36.6445C63.2069 36.7985 63.1691 36.9514 63.1466 37.1065C63.0956 37.4165 63.0445 37.7265 62.9935 38.0376C62.9813 38.1151 62.967 38.1916 62.9568 38.2711L62.9302 38.5119L62.8761 38.9945L62.824 39.4772C62.8138 39.5598 62.8098 39.6342 62.8046 39.7086L62.7914 39.9329L62.7352 40.831L62.726 41.8148C62.726 41.9739 62.7179 42.1321 62.726 42.2902L62.7669 43.2409L62.7771 43.4776C62.7812 43.5572 62.7904 43.6357 62.7975 43.7153C62.8271 44.0305 62.8567 44.3467 62.8863 44.6619C62.8975 44.8211 62.9251 44.9771 62.9476 45.1342L63.0149 45.6044L63.0844 46.0746C63.1129 46.2307 63.1446 46.3857 63.1752 46.5407L63.2671 47.0068L63.313 47.2393C63.3283 47.3168 63.3447 47.3943 63.3651 47.4708C63.4416 47.7767 63.5182 48.0836 63.5958 48.3895C64.2522 50.8243 65.2577 53.1402 66.5338 55.2123C66.6124 55.3425 66.691 55.4716 66.7706 55.6019C66.8543 55.7279 66.938 55.853 67.0217 55.9791C67.1922 56.2292 67.3545 56.4823 67.5291 56.7262C67.8874 57.2068 68.2314 57.6925 68.6142 58.141C68.7081 58.2557 68.801 58.3694 68.8939 58.482L69.0338 58.6526C72.3331 62.6613 76.3746 65.7378 81.4553 67.2249C84.6066 68.1467 87.9212 68.6325 91.2144 68.3131C93.2428 68.1168 95.2498 67.7117 97.1863 67.0875C100.466 66.0313 103.519 64.3468 106.166 62.1745C108.272 60.4456 110.148 58.4138 111.643 56.1516C112.106 55.4541 113.451 53.7799 113.26 52.8467Z" fill="url(#paint2_linear_347_7)"/>
</g>
<rect x="99" y="42" width="5" height="5" fill="#2260FF"/>
<path d="M2.56 68V20H13.888V68H2.56ZM60.0705 62.88C60.6465 63.904 61.3505 64.672 61.3505 64.672L52.1985 71.328C49.6385 68.192 46.3745 62.048 46.3745 51.424C46.3745 46.24 46.3745 37.216 46.3745 31.328H36.5825C33.4465 31.328 30.9505 33.888 30.9505 36.96V68H19.6225V36.96C19.6225 27.616 27.2385 20 36.5825 20H57.7025V51.424C57.7025 57.376 58.9825 60.96 60.0705 62.88ZM120.31 68V20H131.638V68H120.31ZM136.748 51.04V20H176.364V44H165.036V31.328H148.076V51.04C148.076 54.112 150.635 56.672 153.772 56.672H176.364V68H153.772C144.364 68 136.748 60.384 136.748 51.04ZM210.411 37.6V20H221.739V68H210.411V48.928H193.451V68H182.123V20H193.451V37.6H210.411ZM227.498 68V20H238.826V68H227.498Z" fill="url(#paint3_linear_347_7)"/>
<defs>
<linearGradient id="paint0_linear_347_7" x1="86.2901" y1="26.7556" x2="86.2901" y2="52.7135" gradientUnits="userSpaceOnUse">
<stop/>
<stop offset="0.0001" stop-color="#2260FF"/>
</linearGradient>
<linearGradient id="paint1_linear_347_7" x1="95.6965" y1="34.1716" x2="95.6965" y2="59.6923" gradientUnits="userSpaceOnUse">
<stop/>
<stop offset="0.0001" stop-color="#2260FF"/>
</linearGradient>
<linearGradient id="paint2_linear_347_7" x1="88.0006" y1="16.3" x2="88.0006" y2="68.4112" gradientUnits="userSpaceOnUse">
<stop/>
<stop offset="0.0001" stop-color="#2260FF"/>
</linearGradient>
<linearGradient id="paint3_linear_347_7" x1="0" y1="71" x2="1840" y2="71" gradientUnits="userSpaceOnUse">
<stop stop-color="white"/>
<stop offset="0.0001" stop-color="white"/>
<stop offset="0.0002"/>
</linearGradient>
</defs>
</svg>
